<?xml version="1.0" encoding="UTF-8" standalone="no"?>
<!-- Created with Inkscape (http://www.inkscape.org/) -->

<svg
   xmlns:dc="http://purl.org/dc/elements/1.1/"
   xmlns:cc="http://creativecommons.org/ns#"
   xmlns:rdf="http://www.w3.org/1999/02/22-rdf-syntax-ns#"
   xmlns:svg="http://www.w3.org/2000/svg"
   xmlns="http://www.w3.org/2000/svg"
   xmlns:sodipodi="http://sodipodi.sourceforge.net/DTD/sodipodi-0.dtd"
   xmlns:inkscape="http://www.inkscape.org/namespaces/inkscape"
   width="11.669409mm"
   height="19.233809mm"
   viewBox="0 0 11.669409 19.233809"
   version="1.1"
   id="svg8"
   inkscape:version="0.92.4 (5da689c313, 2019-01-14)"
   sodipodi:docname="SortingAlgorithmLogo.svg">
  <defs
     id="defs2">
    <marker
       inkscape:stockid="Arrow2Lstart"
       orient="auto"
       refY="0"
       refX="0"
       id="Arrow2Lstart"
       style="overflow:visible"
       inkscape:isstock="true">
      <path
         id="path4564"
         style="fill:#000000;fill-opacity:1;fill-rule:evenodd;stroke:#000000;stroke-width:0.625;stroke-linejoin:round;stroke-opacity:1"
         d="M 8.7185878,4.0337352 -2.2072895,0.01601326 8.7185884,-4.0017078 c -1.7454984,2.3720609 -1.7354408,5.6174519 -6e-7,8.035443 z"
         transform="matrix(1.1,0,0,1.1,1.1,0)"
         inkscape:connector-curvature="0" />
    </marker>
    <marker
       inkscape:stockid="TriangleOutL"
       orient="auto"
       refY="0"
       refX="0"
       id="marker6962"
       style="overflow:visible"
       inkscape:isstock="true">
      <path
         id="path6960"
         d="M 5.77,0 -2.88,5 V -5 Z"
         style="fill:#ffffff;fill-opacity:1;fill-rule:evenodd;stroke:#fcfcfc;stroke-width:1.00000003pt;stroke-opacity:1"
         transform="scale(0.8)"
         inkscape:connector-curvature="0" />
    </marker>
    <marker
       inkscape:stockid="TriangleOutL"
       orient="auto"
       refY="0"
       refX="0"
       id="TriangleOutL"
       style="overflow:visible"
       inkscape:isstock="true">
      <path
         id="path4688"
         d="M 5.77,0 -2.88,5 V -5 Z"
         style="fill:#ffffff;fill-opacity:1;fill-rule:evenodd;stroke:#000000;stroke-width:1.00000003pt;stroke-opacity:1"
         transform="scale(0.8)"
         inkscape:connector-curvature="0" />
    </marker>
    <marker
       inkscape:stockid="Arrow1Lend"
       orient="auto"
       refY="0"
       refX="0"
       id="Arrow1Lend"
       style="overflow:visible"
       inkscape:isstock="true">
      <path
         id="path4549"
         d="M 0,0 5,-5 -12.5,0 5,5 Z"
         style="fill:#000000;fill-opacity:1;fill-rule:evenodd;stroke:#000000;stroke-width:1.00000003pt;stroke-opacity:1"
         transform="matrix(-0.8,0,0,-0.8,-10,0)"
         inkscape:connector-curvature="0" />
    </marker>
  </defs>
  <sodipodi:namedview
     id="base"
     pagecolor="#ffffff"
     bordercolor="#666666"
     borderopacity="1.0"
     inkscape:pageopacity="0.0"
     inkscape:pageshadow="2"
     inkscape:zoom="22.4"
     inkscape:cx="15.277012"
     inkscape:cy="22.940672"
     inkscape:document-units="mm"
     inkscape:current-layer="layer1"
     showgrid="true"
     inkscape:snap-grids="true"
     fit-margin-top="0"
     fit-margin-left="0"
     fit-margin-right="0"
     fit-margin-bottom="0"
     inkscape:window-width="2560"
     inkscape:window-height="1361"
     inkscape:window-x="1911"
     inkscape:window-y="-9"
     inkscape:window-maximized="1">
    <inkscape:grid
       type="xygrid"
       id="grid5564"
       originx="-49.475994"
       originy="-226.13222" />
  </sodipodi:namedview>
  <metadata
     id="metadata5">
    <rdf:RDF>
      <cc:Work
         rdf:about="">
        <dc:format>image/svg+xml</dc:format>
        <dc:type
           rdf:resource="http://purl.org/dc/dcmitype/StillImage" />
        <dc:title></dc:title>
      </cc:Work>
    </rdf:RDF>
  </metadata>
  <g
     inkscape:label="Ebene 1"
     inkscape:groupmode="layer"
     id="layer1"
     transform="translate(-49.475996,-51.633978)">
    <g
       aria-label="1
9"
       transform="matrix(0.26458333,0,0,0.26458333,0.83521723,0.53453906)"
       style="font-style:normal;font-variant:normal;font-weight:normal;font-stretch:normal;font-size:40px;line-height:1.25;font-family:Roboto;-inkscape-font-specification:'Roboto, Normal';font-variant-ligatures:normal;font-variant-caps:normal;font-variant-numeric:normal;font-feature-settings:normal;text-align:start;letter-spacing:0px;word-spacing:0px;writing-mode:lr-tb;text-anchor:start;fill:#ffffff;fill-opacity:1;stroke:none"
       id="flowRoot4518">
      <path
         d="m 198.14463,224.66211 h -3.63282 v -24.08203 l -7.28515,2.67578 v -3.28125 l 10.35156,-3.88672 h 0.56641 z"
         style="fill:#ffffff;fill-opacity:1"
         id="path6391"
         inkscape:connector-curvature="0" />
      <path
         d="m 200.11728,250.82351 q -1.13281,1.34766 -2.71484,2.16797 -1.5625,0.82031 -3.4375,0.82031 -2.46094,0 -4.29688,-1.21094 -1.8164,-1.21093 -2.8125,-3.39843 -0.99609,-2.20704 -0.99609,-4.86329 0,-2.85156 1.07422,-5.13671 1.09375,-2.28516 3.08594,-3.4961 1.99218,-1.21094 4.64843,-1.21094 4.21875,0 6.64063,3.16407 2.44141,3.14453 2.44141,8.59375 v 1.05468 q 0,8.30079 -3.28125,12.12891 -3.28125,3.80859 -9.90235,3.90625 h -0.70312 v -3.04687 h 0.76172 q 4.47265,-0.0781 6.875,-2.32422 2.40234,-2.26563 2.61718,-7.14844 z m -5.5664,0 q 1.8164,0 3.33984,-1.11328 1.54297,-1.11328 2.24609,-2.75391 v -1.44531 q 0,-3.55469 -1.54296,-5.78125 -1.54297,-2.22656 -3.90625,-2.22656 -2.38282,0 -3.82813,1.83593 -1.44531,1.81641 -1.44531,4.80469 0,2.91016 1.38672,4.80469 1.40625,1.875 3.75,1.875 z"
         id="path6393"
         inkscape:connector-curvature="0"
         style="fill:#ffffff;fill-opacity:1" />
    </g>
    <text
       xml:space="preserve"
       style="font-style:normal;font-weight:normal;font-size:10.58333302px;line-height:1.25;font-family:sans-serif;letter-spacing:0px;word-spacing:0px;fill:#000000;fill-opacity:1;stroke:none;stroke-width:0.26458332"
       x="54.050591"
       y="64.54464"
       id="text4530"><tspan
         sodipodi:role="line"
         id="tspan4528"
         x="54.050591"
         y="74.200134"
         style="stroke-width:0.26458332"></tspan><tspan
         sodipodi:role="line"
         x="54.050591"
         y="87.429298"
         style="stroke-width:0.26458332"
         id="tspan4532" /></text>
    <path
       style="fill:none;stroke:#fcfcfc;stroke-width:0.47262719;stroke-linecap:butt;stroke-linejoin:miter;stroke-miterlimit:4;stroke-dasharray:none;stroke-opacity:1;marker-end:url(#marker6962)"
       d="M 58.818043,51.633978 V 68.182451"
       id="path11226"
       inkscape:connector-curvature="0" />
  </g>
</svg>
